<svg width="28" height="22" viewBox="0 0 28 22" fill="none" xmlns="http://www.w3.org/2000/svg">
<path d="M27 18.8571H1C0.734784 18.8571 0.48043 18.9399 0.292893 19.0873C0.105357 19.2346 0 19.4345 0 19.6429L0 21.2143C0 21.4227 0.105357 21.6225 0.292893 21.7699C0.48043 21.9172 0.734784 22 1 22H27C27.2652 22 27.5196 21.9172 27.7071 21.7699C27.8946 21.6225 28 21.4227 28 21.2143V19.6429C28 19.4345 27.8946 19.2346 27.7071 19.0873C27.5196 18.9399 27.2652 18.8571 27 18.8571ZM27 12.5714H1C0.734784 12.5714 0.48043 12.6542 0.292893 12.8016C0.105357 12.9489 0 13.1488 0 13.3571L0 14.9286C0 15.137 0.105357 15.3368 0.292893 15.4842C0.48043 15.6315 0.734784 15.7143 1 15.7143H27C27.2652 15.7143 27.5196 15.6315 27.7071 15.4842C27.8946 15.3368 28 15.137 28 14.9286V13.3571C28 13.1488 27.8946 12.9489 27.7071 12.8016C27.5196 12.6542 27.2652 12.5714 27 12.5714ZM27 6.28571H1C0.734784 6.28571 0.48043 6.36849 0.292893 6.51584C0.105357 6.66319 0 6.86304 0 7.07143L0 8.64286C0 8.85124 0.105357 9.05109 0.292893 9.19844C0.48043 9.34579 0.734784 9.42857 1 9.42857H27C27.2652 9.42857 27.5196 9.34579 27.7071 9.19844C27.8946 9.05109 28 8.85124 28 8.64286V7.07143C28 6.86304 27.8946 6.66319 27.7071 6.51584C27.5196 6.36849 27.2652 6.28571 27 6.28571ZM27 0H1C0.734784 0 0.48043 0.0827803 0.292893 0.23013C0.105357 0.37748 0 0.57733 0 0.785714L0 2.35714C0 2.56553 0.105357 2.76538 0.292893 2.91273C0.48043 3.06008 0.734784 3.14286 1 3.14286H27C27.2652 3.14286 27.5196 3.06008 27.7071 2.91273C27.8946 2.76538 28 2.56553 28 2.35714V0.785714C28 0.57733 27.8946 0.37748 27.7071 0.23013C27.5196 0.0827803 27.2652 0 27 0Z" fill="#5F6368"/>
</svg>
